<?xml version="1.0" encoding="UTF-8"?>
<svg id="Layer_1" xmlns="http://www.w3.org/2000/svg" width="179.79" height="32.41" version="1.1" viewBox="0 0 179.79 32.41">
  <!-- Generator: Adobe Illustrator 29.8.4, SVG Export Plug-In . SVG Version: 2.1.1 Build 6)  -->
  <path d="M7.2,21.51v9.9H0V.94h27.3v6.89H7.2v6.39h19.92v7.29H7.2Z"/>
  <path d="M31.53,31.42V.94h7.16v30.47h-7.16Z"/>
  <path d="M54.03,31.42V8.6h-11.93V.94h31.06v7.65h-11.97v22.82h-7.17Z"/>
  <path d="M74.63,31.42v-6.48l19.09-17.37h-18.66V.94h29.84v5.76l-18.95,17.46h19.13v7.25h-30.45Z"/>
  <path d="M108.92,31.42V.94h18.88c10.21,0,13.65,4.86,13.65,15.26s-3.44,15.21-13.65,15.21h-18.88ZM127.88,23.58c4.01,0,6.09-1.71,6.09-7.74,0-6.53-2.08-8.01-6.09-8.01h-11.75v15.75h11.75Z"/>
  <path d="M162.67,32.41c-11.03,0-17.12-3.96-17.12-16.2S151.63,0,162.67,0s17.12,3.96,17.12,16.2-6.05,16.2-17.12,16.2ZM162.67,7.25c-7.59,0-9.57,2.34-9.57,8.96s1.97,8.91,9.57,8.91,9.64-2.34,9.64-8.91-1.97-8.96-9.64-8.96Z"/>
</svg>