<?xml version="1.0" encoding="UTF-8"?>
<svg id="Layer_1" xmlns="http://www.w3.org/2000/svg" width="315" height="44.81" version="1.1" viewBox="0 0 315 44.81">
  <!-- Generator: Adobe Illustrator 29.8.4, SVG Export Plug-In . SVG Version: 2.1.1 Build 6)  -->
  <line x1="192.95" y1="-1" x2="192.95" y2="46.21" fill="none" stroke="#000" stroke-width="3.03"/>
  <g>
    <path d="M7.2,27.71v9.9H0V7.14h27.3v6.89H7.2v6.39h19.92v7.29H7.2Z"/>
    <path d="M31.53,37.62V7.14h7.16v30.47h-7.16Z"/>
    <path d="M54.03,37.62V14.8h-11.93v-7.65h31.06v7.65h-11.97v22.82h-7.17Z"/>
    <path d="M74.63,37.62v-6.48l19.09-17.37h-18.66v-6.62h29.84v5.76l-18.95,17.46h19.13v7.25h-30.45Z"/>
    <path d="M108.92,37.62V7.14h18.88c10.21,0,13.65,4.86,13.65,15.26s-3.44,15.21-13.65,15.21h-18.88ZM127.88,29.78c4.01,0,6.09-1.71,6.09-7.74,0-6.53-2.08-8.01-6.09-8.01h-11.75v15.75h11.75Z"/>
    <path d="M162.67,38.61c-11.03,0-17.12-3.96-17.12-16.2s6.09-16.2,17.12-16.2,17.12,3.96,17.12,16.2-6.05,16.2-17.12,16.2ZM162.67,13.45c-7.59,0-9.57,2.34-9.57,8.96s1.97,8.91,9.57,8.91,9.64-2.34,9.64-8.91-1.97-8.96-9.64-8.96Z"/>
  </g>
  <g>
    <path d="M242.94,30.73c.42,0,.84.58.84,1.09,0,.17-.04.33-.17.46-4.89,4.89-13.53,12.53-25.56,12.53-8.14,0-13.78-4.93-13.78-10.65,0-12.94,23.63-34.16,34.78-34.16,5.14,0,8.56,3.84,8.56,7.47,0,6.35-11.11,19.08-17.2,19.08-1.88,0-3.26-1.5-3.26-2.34,0-.38.21-.63.75-.63,5.14,0,17.33-12.73,17.33-18.46,0-1.63-1-2.67-3.47-2.67-11.19,0-33.53,22.72-33.53,33.91,0,3.63,2.38,6.01,8.27,6.01,11.69,0,21-6.43,26.14-11.52.08-.08.21-.13.29-.13Z"/>
    <path d="M245.57,24.97c.25-.25.63-.38.96-.38,1.25,0,2.76,1.34,2.76,1.88,0,.08,0,.13-.04.17-1.21,1.21-5.97,9.06-5.97,10.77,0,.21.08.33.25.33,1.17,0,7.6-5.72,8.81-6.93.08-.08.17-.13.25-.13.42,0,.88.67.88,1.17,0,.17-.04.29-.17.42-.96.92-8.35,8.1-11.02,8.1-1.59,0-3.01-1.5-3.01-3.26,0-2.51,4.68-10.48,6.31-12.15ZM252.71,12.53c1.67,0,3.47,2.26,3.47,3.38,0,.33-.21.58-.63.58-1.25,0-4.26,3.55-4.26,4.55,0,.33-.29.5-.67.5-.79,0-1.96-.63-1.96-1.5,0-1.67,1.8-7.52,4.05-7.52Z"/>
    <path d="M268.82,30.69c.38,0,.84.63.84,1.13,0,.17-.04.29-.17.42-.92.96-8.31,8.1-11.02,8.1-1.59,0-3.01-1.5-3.01-3.26,0-2.17,3.76-6.39,3.76-7.64,0-.54-.88-.75-1.96-.92-5.39,5.85-6.6,6.01-6.51,6.01-.54,0-1.13-.46-1.13-.88,0-.13,1.46-1.34,5.55-5.51-1.59-.29-3.05-.79-3.05-2.13,0-1.79,3.72-5.14,6.64-5.14,1.67,0,2.34.58,2.34,1.46,0,1.17-1.13,2.92-2.59,4.72,1.67.54,3.67,1.17,3.67,3.17,0,1-2.67,5.85-2.67,7.14,0,.21.04.33.21.33,1.17,0,7.6-5.68,8.81-6.89.08-.08.17-.13.29-.13ZM256.8,26.43c1.59-1.63,2.8-3.09,2.8-3.63,0-.17-.08-.25-.29-.25-.42,0-3.26,2.05-3.26,2.92,0,.42.29.75.75.96Z"/>
    <path d="M269.91,40.71c-2.3,0-4.43-1.75-4.43-3.97,0-4.01,7.47-13.36,10.9-13.36,2.13,0,3.59,1.71,3.59,2.92,0,2.25-2.05,6.05-3.84,6.05-1.17,0-2.09-1.13-2.09-1.75,0-.21.13-.38.42-.38,1.25,0,3.3-3.97,3.3-4.93,0-.13-.04-.21-.13-.21-1.13,0-8.14,8.43-8.14,11.86,0,.84.42,1.38,1.55,1.38,5.43,0,28.77-27.39,28.85-27.6.25-.21.54-.29.88-.29,1.13,0,2.38,1.29,2.38,1.88,0,.04-.04.13-.08.17-3.42,3.42-15.66,24.34-15.66,26.47,0,.13.04.17.13.17,1.59,0,10.31-8.43,10.36-8.43.42,0,.88.63.88,1.13,0,.17-.04.33-.17.46-.96.92-9.23,9.48-11.9,9.48-1.63,0-3.01-1.09-3.01-2.84,0-2.05,4.55-10.11,8.85-17.12-7.27,8.14-17.75,18.92-22.63,18.92Z"/>
    <path d="M314.17,30.73c.42,0,.83.58.83,1.09,0,.17-.04.33-.17.46-1.55,1.55-9.35,9.48-16.03,9.48-2.3,0-4.01-1.88-4.01-4.01,0-4.01,7.52-14.16,10.9-14.16,2.13,0,3.59,1.75,3.59,2.92,0,2.84-4.63,9.73-10.1,10.52v.08l-.04.21c0,1.09.5,1.63,1.63,1.63,4.38,0,11.78-6.81,13.11-8.1.08-.08.21-.13.29-.13ZM307.07,25.56c0-.17-.04-.25-.13-.25-.88,0-5.01,5.05-6.85,9.02,3.38-.58,6.97-7.43,6.97-8.77Z"/>
  </g>
</svg>